<?xml version="1.0" standalone="no"?>
<!DOCTYPE svg PUBLIC "-//W3C//DTD SVG 20010904//EN"
 "http://www.w3.org/TR/2001/REC-SVG-20010904/DTD/svg10.dtd">
<svg version="1.0" xmlns="http://www.w3.org/2000/svg"
 width="590.000000pt" height="590.000000pt" viewBox="0 0 590.000000 590.000000"
 preserveAspectRatio="xMidYMid meet">
<metadata>
Created by potrace 1.11, written by Peter Selinger 2001-2013
</metadata>
<g transform="translate(0.000000,590.000000) scale(0.100000,-0.100000)"
fill="#000000" stroke="none">
<path d="M2760 5891 c0 -5 -8 -8 -17 -7 -65 10 -423 -156 -423 -195 0 -14 82
-119 95 -120 5 -1 26 -3 46 -4 48 -3 91 -14 107 -28 10 -8 3 -20 -36 -56 -92
-85 -87 -82 -113 -72 -19 7 -34 3 -69 -17 -89 -50 -196 -99 -232 -106 -40 -7
-68 -25 -68 -44 0 -9 19 -55 41 -102 23 -47 42 -89 44 -95 1 -5 5 -17 8 -25
18 -44 47 -128 51 -150 3 -14 10 -41 16 -60 6 -19 13 -48 16 -65 10 -53 11
-60 19 -77 4 -11 18 -18 36 -18 22 0 30 -6 34 -22 7 -36 25 -139 31 -183 10
-68 17 -70 207 -49 l58 6 -3 -43 -3 -44 -90 -29 c-49 -16 -93 -33 -96 -38 -3
-5 -9 -9 -13 -9 -10 2 -101 -43 -104 -51 -2 -4 -8 -8 -14 -8 -11 0 -76 -47
-99 -72 -9 -10 -19 -15 -23 -11 -3 3 -6 2 -6 -4 0 -11 -44 -44 -64 -47 -6 -1
-20 -7 -31 -12 -28 -14 -40 -12 -67 12 -56 48 -139 -4 -132 -82 3 -27 0 -30
-24 -31 -15 -1 -49 -2 -75 -4 -40 -1 -51 2 -65 21 -9 12 -32 38 -49 57 -18 19
-33 39 -33 44 0 5 -4 9 -8 9 -4 0 -8 9 -9 19 -1 12 8 23 26 30 15 7 38 22 52
35 13 12 38 31 54 41 17 11 34 26 38 33 5 7 19 17 33 22 14 6 26 21 30 37 4
15 13 36 21 45 9 9 16 40 17 68 2 43 -2 54 -24 77 -15 14 -35 27 -46 29 -10 1
-36 4 -56 7 -25 4 -41 1 -49 -9 -6 -8 -21 -14 -33 -14 -13 0 -32 -11 -43 -23
-11 -13 -29 -30 -39 -38 -30 -23 -54 -55 -59 -78 -7 -35 -45 -61 -80 -53 -16
4 -54 7 -82 6 -29 0 -53 3 -53 7 0 4 -9 11 -21 14 -11 4 -27 22 -36 40 -9 18
-25 38 -37 45 -12 6 -27 24 -34 40 -7 16 -21 32 -31 35 -9 3 -25 21 -34 40 -9
20 -27 40 -40 46 -13 6 -28 24 -35 41 -6 16 -20 32 -32 35 -19 5 -35 37 -29
59 2 5 0 25 -4 45 -6 28 -15 40 -45 55 -20 10 -50 29 -65 42 -16 12 -39 22
-53 22 -13 0 -24 5 -24 11 0 5 -5 7 -10 4 -6 -3 -10 -2 -10 3 0 5 -24 8 -52 8
-74 -2 -116 -32 -109 -78 0 -5 -3 -8 -9 -8 -13 0 -13 -77 0 -85 6 -3 10 -21
10 -39 0 -19 6 -39 14 -45 12 -10 22 -43 28 -88 1 -7 10 -15 20 -19 10 -3 18
-9 18 -13 0 -5 17 -11 38 -14 28 -5 42 -14 55 -37 10 -16 23 -30 28 -30 6 0 7
-5 4 -10 -4 -6 -1 -9 5 -8 11 3 36 -29 56 -69 3 -7 12 -13 20 -13 7 0 20 -15
29 -34 9 -18 27 -38 40 -44 14 -7 25 -20 25 -31 0 -11 13 -27 29 -37 26 -16
52 -53 56 -79 1 -5 -4 -26 -10 -45 -6 -19 -10 -55 -8 -79 3 -35 0 -48 -19 -65
-12 -11 -25 -21 -28 -22 -27 -4 -60 -18 -60 -25 0 -5 -4 -8 -8 -7 -5 2 -20 -7
-33 -19 -13 -12 -36 -32 -51 -45 -15 -13 -29 -30 -30 -38 -2 -8 -9 -21 -15
-28 -18 -19 -16 -107 2 -126 9 -8 15 -19 14 -23 -3 -13 72 -30 118 -27 48 4
52 -2 23 -38 -10 -14 -16 -28 -13 -32 3 -3 1 -6 -5 -6 -7 0 -12 -6 -12 -14 0
-8 -3 -16 -7 -18 -13 -5 -89 -168 -99 -213 -6 -22 -6 -23 -22 -80 -11 -39 -20
-95 -28 -165 -6 -50 -1 -255 6 -255 1 0 3 -11 4 -25 2 -14 6 -39 10 -55 5 -17
10 -41 12 -54 3 -13 14 -49 25 -80 12 -31 25 -72 31 -91 6 -19 15 -44 21 -55
6 -11 11 -23 12 -26 0 -14 80 -174 90 -181 6 -4 6 -8 2 -8 -5 0 1 -13 13 -30
12 -17 19 -30 16 -30 -4 0 5 -18 19 -40 14 -22 22 -40 19 -40 -4 0 -1 -8 7
-17 16 -21 23 -33 74 -133 22 -41 44 -78 49 -82 6 -4 8 -8 3 -8 -4 0 0 -12 10
-27 9 -14 18 -32 19 -40 2 -8 9 -22 17 -31 24 -26 30 -67 16 -94 -7 -12 -14
-26 -15 -30 -1 -5 -3 -11 -4 -15 -1 -5 -2 -11 -1 -15 0 -5 -3 -8 -8 -8 -14 0
-1 -70 21 -109 21 -36 78 -101 78 -87 0 4 12 -4 27 -18 22 -21 24 -27 14 -40
-8 -9 -11 -16 -7 -16 3 0 -3 -15 -13 -33 -14 -24 -18 -50 -16 -100 2 -52 -2
-70 -16 -86 -10 -10 -15 -22 -12 -25 4 -3 1 -6 -6 -6 -7 0 -9 -4 -6 -10 3 -5
2 -10 -2 -10 -5 0 -10 -11 -11 -25 -1 -13 -3 -28 -4 -32 -1 -4 1 -24 5 -44 9
-45 72 -113 147 -158 30 -18 56 -35 58 -36 5 -4 -15 -40 -30 -57 -7 -7 -31
-36 -53 -63 -22 -28 -45 -56 -52 -63 -7 -7 -13 -17 -13 -22 0 -5 -6 -15 -13
-22 -13 -12 -83 -133 -78 -133 1 0 -7 -21 -18 -46 -12 -25 -23 -57 -25 -70 -3
-13 -5 -24 -6 -24 -1 0 -4 -11 -7 -25 -6 -30 -11 -53 -13 -60 -1 -3 -2 -20 -2
-37 -1 -53 29 -76 70 -54 9 5 47 23 84 40 139 62 285 179 407 326 18 22 49 60
69 84 69 82 83 93 111 87 14 -3 82 -15 151 -25 69 -11 134 -22 145 -24 11 -3
61 -8 110 -12 50 -4 104 -8 120 -10 217 -24 825 -24 954 0 9 1 54 6 101 10 47
3 97 8 113 11 15 2 39 6 55 8 137 21 142 22 245 43 l88 17 25 -29 c25 -29 69
-80 144 -168 127 -150 241 -243 377 -308 49 -22 96 -45 105 -50 26 -13 44 -11
59 7 14 17 20 83 9 99 -6 9 -20 69 -21 92 -1 5 -5 14 -11 21 -6 6 -8 12 -4 12
4 0 -2 17 -13 39 -11 21 -17 41 -14 45 4 3 0 6 -7 6 -7 0 -10 3 -7 6 3 4 -2
18 -13 32 -11 13 -17 28 -14 33 3 5 1 9 -4 9 -5 0 -15 12 -23 27 -15 29 -18
34 -47 69 -9 12 -28 36 -42 54 -14 18 -33 42 -44 54 -10 11 -30 36 -44 55
l-26 33 29 22 c17 11 38 29 47 39 10 9 21 17 24 17 10 0 43 44 44 58 0 6 5 12
11 12 5 0 7 4 4 10 -3 5 -2 10 3 10 5 0 9 6 9 13 0 6 2 17 4 22 5 17 -11 85
-21 85 -6 0 -10 6 -10 13 0 7 -6 19 -12 26 -8 7 -13 43 -14 94 -2 92 -5 112
-22 129 -7 7 -12 17 -12 22 0 12 77 85 83 79 3 -2 10 10 17 27 7 16 16 27 21
24 9 -5 13 9 10 33 -1 7 2 13 7 13 8 0 8 81 -1 136 -3 20 2 47 16 75 26 55 23
50 32 76 4 13 11 23 16 23 5 0 9 5 9 11 0 6 17 41 37 77 21 37 37 70 35 74 -1
5 1 8 6 8 4 0 25 35 47 77 22 43 42 80 45 83 12 12 30 51 30 65 0 8 4 15 9 15
5 0 13 10 17 22 4 13 23 56 42 98 20 41 37 83 39 93 2 10 9 28 17 40 14 23 57
163 76 252 30 137 29 304 -4 445 -8 33 -12 60 -10 60 3 0 -2 13 -10 29 -9 16
-12 31 -9 35 4 3 2 6 -4 6 -5 0 -10 7 -11 15 -1 8 -3 22 -4 30 -1 8 -5 15 -10
15 -5 0 -6 5 -3 10 3 6 2 10 -4 10 -5 0 -12 13 -16 30 -4 16 -17 45 -30 64
-13 19 -21 36 -19 39 2 2 -5 12 -16 22 -11 10 -20 24 -20 31 0 7 -6 14 -12 17
-10 3 -9 9 3 22 13 13 21 15 36 7 41 -22 143 3 143 35 0 7 4 13 9 13 6 0 11
24 13 53 2 40 -1 57 -16 75 -11 12 -21 30 -22 39 -3 17 -22 33 -41 33 -6 0
-19 12 -30 28 -10 15 -24 28 -31 30 -29 6 -104 46 -109 58 -3 8 -9 12 -13 9
-5 -3 -6 7 -3 22 10 51 10 78 0 91 -5 6 -6 12 -3 12 4 0 2 9 -4 20 -6 11 -7
26 -3 33 8 12 9 17 12 37 0 6 7 10 14 10 14 0 53 41 49 53 -1 4 3 7 9 7 5 0 7
5 4 10 -3 6 2 13 12 17 21 8 52 43 53 59 0 6 11 17 25 24 13 7 31 28 40 46 8
18 23 35 33 39 9 3 28 23 41 44 14 23 30 38 40 36 48 -7 101 48 101 106 0 11
4 19 9 19 13 0 31 56 26 80 -2 11 0 22 6 25 5 4 7 16 5 28 -3 12 -8 39 -11 60
-4 25 -14 43 -32 54 -28 18 -124 26 -134 11 -3 -5 -21 -12 -40 -14 -19 -3 -44
-16 -57 -30 -13 -13 -29 -24 -36 -24 -8 0 -28 -13 -45 -29 -26 -24 -31 -36
-31 -76 0 -44 -14 -72 -35 -71 -5 1 -19 -16 -30 -36 -11 -20 -27 -39 -36 -41
-9 -3 -25 -21 -34 -41 -10 -20 -24 -36 -31 -36 -8 0 -14 -4 -14 -9 0 -5 -20
-31 -45 -59 -25 -27 -45 -53 -45 -57 0 -8 -26 -35 -35 -35 -4 0 -13 -7 -22
-15 -10 -11 -26 -14 -47 -11 -17 3 -49 1 -71 -4 -48 -11 -81 6 -97 51 -5 16
-15 29 -21 29 -6 0 -7 3 -4 6 6 7 -52 64 -65 64 -4 0 -9 8 -13 19 -4 12 -19
21 -45 25 -22 3 -40 11 -40 16 0 6 -14 8 -32 5 -76 -13 -105 -26 -118 -51 -18
-33 -15 -112 6 -135 9 -10 14 -21 11 -26 -8 -12 12 -34 67 -73 27 -19 61 -46
76 -60 14 -14 43 -34 63 -45 20 -11 37 -23 37 -28 0 -10 -68 -102 -103 -139
-20 -22 -31 -26 -58 -22 -19 3 -71 5 -117 6 -80 1 -111 12 -80 29 18 10 64
111 73 159 18 99 -4 173 -65 220 -18 14 -34 24 -36 22 -3 -1 -18 5 -34 13 -16
8 -32 15 -35 15 -40 -1 -65 1 -63 8 0 4 -9 29 -22 57 -21 46 -23 66 -27 260
-1 115 -5 226 -7 245 -14 128 -18 144 -67 330 -2 8 -10 21 -16 28 -7 7 -13 20
-13 28 0 14 -56 123 -69 134 -3 3 -12 17 -20 33 -8 15 -18 27 -23 27 -4 0 -8
6 -8 13 0 15 -132 153 -174 182 -16 11 -36 28 -45 38 -8 9 -19 17 -23 17 -4 0
-31 14 -60 31 -29 17 -54 31 -56 30 -1 -1 -32 7 -68 19 -36 11 -70 17 -75 14
-5 -3 -9 -1 -9 5 0 5 -50 10 -120 10 -68 1 -120 -3 -120 -8z"/>
</g>
</svg>
